<svg width="6266" height="6231" viewBox="0 0 6266 6231" fill="none" xmlns="http://www.w3.org/2000/svg">
<path d="M2732.6 6230.95C1209.68 6213.55 -8.65607 4969.11 0.0463306 3454.89C8.74873 1940.67 1253.19 713.633 2776.11 722.336C4299.03 731.038 5517.37 1984.18 5499.96 3498.4C5491.26 5012.62 4246.82 6239.66 2732.6 6230.95Z" fill="#F08D30"/>
<path d="M2732.59 5526.1C1609.98 5517.4 696.224 4586.24 704.927 3463.63C713.629 2332.32 1636.08 1427.27 2767.4 1435.97C3898.71 1444.67 4803.76 2367.13 4795.05 3498.44C4786.35 4621.05 3863.9 5534.8 2732.59 5526.1Z" fill="#E73A36"/>
<path d="M2741.28 4821.14C2001.57 4812.44 1401.11 4211.97 1409.81 3463.56C1418.51 2723.86 2018.98 2123.39 2767.38 2132.1C3507.09 2140.8 4107.55 2741.27 4098.85 3489.67C4090.15 4229.38 3480.98 4821.14 2741.28 4821.14Z" fill="#FED766"/>
<path d="M2750.03 4107.59C3100.88 4107.59 3385.3 3823.17 3385.3 3472.32C3385.3 3121.46 3100.88 2837.04 2750.03 2837.04C2399.17 2837.04 2114.75 3121.46 2114.75 3472.32C2114.75 3823.17 2399.17 4107.59 2750.03 4107.59Z" fill="white"/>
<path d="M4681.96 791.918L4768.98 1496.81L5465.17 1592.54L6265.8 800.621L5569.6 704.894L5482.58 0L4681.96 791.918Z" fill="#E73A36"/>
<path d="M2976.27 3489.65L6056.91 461.217C6126.53 400.3 6126.53 287.169 6056.91 226.252C5996 156.633 5882.87 156.633 5821.95 226.252L2741.3 3254.69C2671.68 3315.6 2671.68 3428.74 2741.3 3489.65C2802.22 3550.57 2906.65 3559.27 2976.27 3489.65Z" fill="#594667"/>
</svg>
