<svg width="6232" height="6231" viewBox="0 0 6232 6231" fill="none" xmlns="http://www.w3.org/2000/svg">
<path fill-rule="evenodd" clip-rule="evenodd" d="M3698.88 3505.48L3114.85 4089.52L2725.49 4478.87V5062.91L2141.46 6036.3L2530.81 6230.98L3893.56 4868.23L3698.88 3505.48ZM2725.49 2532.09L1362.75 2337.42L0 3700.16L194.678 4089.52L1168.07 3505.48H1752.1L2141.46 3116.13L2725.49 2532.09Z" fill="#CCCCCC"/>
<path d="M973.41 4284.2C589.991 4843.71 2.55073 5533.55 0.019919 5841.62C-2.0242 6075.53 153.426 6233.02 389.376 6230.98C702.515 6228.35 1363.84 5643.93 1946.8 5257.59L973.41 4284.2Z" fill="#FFCC66"/>
<path d="M1557.44 4089.52C1174.02 4649.02 389.371 5338.86 389.371 5646.94C389.371 5850.47 408.936 5841.62 584.049 5841.62C897.188 5841.62 1558.51 5059.89 2141.47 4673.55L1557.44 4089.52Z" fill="#ED7161"/>
<path d="M5840.36 1.27911C5228.49 39.144 4172.17 111.954 2920.19 1364.02C1999.27 2284.95 1191.36 3624.04 812.609 4512.65L1724.38 5424.42C2608.03 5049.38 3938.26 4239.42 4866.97 3310.8C6110.87 2066.91 6181.73 1006.89 6229.72 390.635C6251.13 115.555 6094.81 -14.4898 5840.36 1.27911Z" fill="#387AA7"/>
<path d="M5840.34 1.27911C5228.47 39.144 4172.15 111.954 2920.17 1364.02C2168.33 2115.77 1492.79 3146.01 1063.14 3982.93L2254.08 5173.87C3085.94 4745.39 4109.85 4067.91 4866.95 3310.8C6110.85 2066.91 6181.71 1006.89 6229.7 390.635C6251.11 115.555 6094.78 -14.4898 5840.34 1.27911Z" fill="#069FE6"/>
<path d="M4672.26 2337.42C5102.33 2337.42 5450.97 1988.78 5450.97 1558.71C5450.97 1128.63 5102.33 779.994 4672.26 779.994C4242.19 779.994 3893.55 1128.63 3893.55 1558.71C3893.55 1988.78 4242.19 2337.42 4672.26 2337.42Z" fill="#4D4D4D"/>
<path d="M4672.27 1948.07C4887.31 1948.07 5061.63 1773.75 5061.63 1558.71C5061.63 1343.68 4887.31 1169.35 4672.27 1169.35C4457.24 1169.35 4282.92 1343.68 4282.92 1558.71C4282.92 1773.75 4457.24 1948.07 4672.27 1948.07Z" fill="white"/>
</svg>
