<svg width="6231" height="6231" viewBox="0 0 6231 6231" fill="none" xmlns="http://www.w3.org/2000/svg">
<path d="M5452.12 389.438C4770.61 389.438 4673.25 973.594 4673.25 1168.31C4673.25 1363.03 4673.25 1557.75 4867.97 1557.75C5062.69 1557.75 5062.69 1363.03 5062.69 1168.31C5062.69 973.594 5160.05 778.875 5452.12 778.875C5744.2 778.875 5841.56 973.594 5841.56 1168.31C5841.56 2141.91 4673.25 2726.06 4089.09 2726.06H2141.91C1557.75 2726.06 389.438 2141.91 389.438 1168.31C389.438 973.594 486.797 778.875 778.875 778.875C1070.95 778.875 1168.31 973.594 1168.31 1168.31C1168.31 1363.03 1168.31 1557.75 1363.03 1557.75C1557.75 1557.75 1557.75 1363.03 1557.75 1168.31C1557.75 973.594 1460.39 389.438 778.875 389.438C292.078 389.438 0 778.875 0 1168.31C0 2336.62 1363.03 3115.5 2141.91 3115.5H4089.09C4867.97 3115.5 6231 2336.62 6231 1168.31C6231 778.875 5938.92 389.438 5452.12 389.438Z" fill="#8A4ACB"/>
<path d="M4867.97 389.438C4867.97 194.621 4867.97 0 4673.25 0C4478.53 0 1752.47 0 1557.75 0C1363.03 0 1363.03 194.621 1363.03 389.438C1363.03 3699.66 2726.06 3310.22 2726.06 3699.66V4089.09C2726.06 4478.53 2141.91 4283.81 2141.91 4673.25H4089.09C4089.09 4283.81 3504.94 4478.53 3504.94 4089.09V3699.66C3504.94 3310.22 4867.97 3699.66 4867.97 389.438Z" fill="#AF62FF"/>
<path d="M4867.97 5062.69H1363.03C1255.55 5062.69 1168.31 5149.82 1168.31 5257.41V6036.28C1168.31 6143.77 1255.55 6231 1363.03 6231H4867.97C4975.45 6231 5062.69 6143.77 5062.69 6036.28V5257.41C5062.69 5149.82 4975.45 5062.69 4867.97 5062.69Z" fill="#666666"/>
<path d="M4089.09 5452.12H2141.91V5841.56H4089.09V5452.12Z" fill="white"/>
<path fill-rule="evenodd" clip-rule="evenodd" d="M4089.09 4673.25H2141.91C2141.91 4673.25 1557.75 4673.25 1557.75 5062.69H4673.25C4673.25 4673.25 4089.09 4673.25 4089.09 4673.25ZM2726.06 4089.09H3504.94C3612.42 4089.09 3699.66 4001.86 3699.66 3894.38C3699.66 3786.79 3612.42 3699.66 3504.94 3699.66H2726.06C2618.58 3699.66 2531.34 3786.79 2531.34 3894.38C2531.34 4001.86 2618.58 4089.09 2726.06 4089.09Z" fill="#8A4ACB"/>
</svg>
