<svg width="4615" height="6053" viewBox="0 0 4615 6053" fill="none" xmlns="http://www.w3.org/2000/svg">
<path d="M3151.59 269.541H4279.47C4464.73 269.541 4615 419.871 4615 605.198V5716.9C4615 5902.22 4464.73 6052.55 4279.47 6052.55H335.691C150.272 6052.55 0 5902.22 0 5716.9V605.198C0 419.871 150.272 269.541 335.691 269.541H1463.4" fill="#FFEF05"/>
<path d="M3151.59 269.541H4279.47C4464.73 269.541 4615 419.871 4615 605.198V5716.9C4615 5902.22 4464.73 6052.55 4279.47 6052.55H335.691C150.272 6052.55 0 5902.22 0 5716.9V605.198C0 419.871 150.272 269.541 335.691 269.541H1463.4" fill="#FFEF05"/>
<path d="M3148.44 928.419H3911.91V5392.25H697.384V928.419H1460.92" fill="white"/>
<path d="M3148.44 928.419H3911.91V5392.25H697.384V928.419H1460.92" fill="white"/>
<path d="M3151.78 1108.11H1460.37V336.469C1460.37 150.656 1610.91 0 1796.61 0H2815.51C3001.21 0 3151.75 150.656 3151.75 336.469V1108.11H3151.78Z" fill="#F9C460"/>
<path d="M3151.78 1108.11H1460.37V336.469C1460.37 150.656 1610.91 0 1796.61 0H2815.51C3001.21 0 3151.75 150.656 3151.75 336.469V1108.11H3151.78Z" fill="#3B4651"/>
<path d="M3412.06 1928.81H1760.31V2145.26H3412.06V1928.81Z" fill="#676363"/>
<path d="M3412.06 4374.18H1760.31V4590.63H3412.06V4374.18Z" fill="#676363"/>
<path d="M3412.06 3559.06H1760.31V3775.51H3412.06V3559.06Z" fill="#676363"/>
<path d="M3412.06 2743.94H1760.31V2960.38H3412.06V2743.94Z" fill="#676363"/>
<path d="M3412.06 1928.81H1760.31V2145.26H3412.06V1928.81Z" fill="#3B4651"/>
<path d="M3412.06 4374.18H1760.31V4590.63H3412.06V4374.18Z" fill="#3B4651"/>
<path d="M3412.06 3559.06H1760.31V3775.51H3412.06V3559.06Z" fill="#3B4651"/>
<path d="M3412.06 2743.94H1760.31V2960.38H3412.06V2743.94Z" fill="#3B4651"/>
<path d="M1310.25 2145.25C1370.02 2145.25 1418.47 2096.8 1418.47 2037.03C1418.47 1977.26 1370.02 1928.81 1310.25 1928.81C1250.48 1928.81 1202.03 1977.26 1202.03 2037.03C1202.03 2096.8 1250.48 2145.25 1310.25 2145.25Z" fill="#F9C460"/>
<path d="M1310.25 2960.37C1370.02 2960.37 1418.47 2911.92 1418.47 2852.16C1418.47 2792.39 1370.02 2743.94 1310.25 2743.94C1250.48 2743.94 1202.03 2792.39 1202.03 2852.16C1202.03 2911.92 1250.48 2960.37 1310.25 2960.37Z" fill="#F9C460"/>
<path d="M1310.25 3775.5C1370.02 3775.5 1418.47 3727.05 1418.47 3667.28C1418.47 3607.51 1370.02 3559.06 1310.25 3559.06C1250.48 3559.06 1202.03 3607.51 1202.03 3667.28C1202.03 3727.05 1250.48 3775.5 1310.25 3775.5Z" fill="#F9C460"/>
<path d="M1310.25 4590.62C1370.02 4590.62 1418.47 4542.17 1418.47 4482.4C1418.47 4422.63 1370.02 4374.18 1310.25 4374.18C1250.48 4374.18 1202.03 4422.63 1202.03 4482.4C1202.03 4542.17 1250.48 4590.62 1310.25 4590.62Z" fill="#F9C460"/>
<path d="M1310.25 2145.25C1370.02 2145.25 1418.47 2096.8 1418.47 2037.03C1418.47 1977.26 1370.02 1928.81 1310.25 1928.81C1250.48 1928.81 1202.03 1977.26 1202.03 2037.03C1202.03 2096.8 1250.48 2145.25 1310.25 2145.25Z" fill="#3B4651"/>
<path d="M1310.25 2960.37C1370.02 2960.37 1418.47 2911.92 1418.47 2852.16C1418.47 2792.39 1370.02 2743.94 1310.25 2743.94C1250.48 2743.94 1202.03 2792.39 1202.03 2852.16C1202.03 2911.92 1250.48 2960.37 1310.25 2960.37Z" fill="#3B4651"/>
<path d="M1310.25 3775.5C1370.02 3775.5 1418.47 3727.05 1418.47 3667.28C1418.47 3607.51 1370.02 3559.06 1310.25 3559.06C1250.48 3559.06 1202.03 3607.51 1202.03 3667.28C1202.03 3727.05 1250.48 3775.5 1310.25 3775.5Z" fill="#3B4651"/>
<path d="M1310.25 4590.62C1370.02 4590.62 1418.47 4542.17 1418.47 4482.4C1418.47 4422.63 1370.02 4374.18 1310.25 4374.18C1250.48 4374.18 1202.03 4422.63 1202.03 4482.4C1202.03 4542.17 1250.48 4590.62 1310.25 4590.62Z" fill="#3B4651"/>
</svg>
